<?xml version="1.0" encoding="iso-8859-1"?>
<!-- Uploaded to: SVG Repo, www.svgrepo.com, Generator: SVG Repo Mixer Tools -->
<svg height="800px" width="800px" version="1.1" id="Layer_1" xmlns="http://www.w3.org/2000/svg" xmlns:xlink="http://www.w3.org/1999/xlink" 
	 viewBox="0 0 512 512" xml:space="preserve">
<g>
	<g>
		<path style="fill:#FF2C47;" d="M132.288,151.666c46-40.638,201.085-40.677,247.291-0.116c0.094-1.298,1.401-12.144,1.469-13.434
			c0.669-12.544,0.142-24.393-2.623-33.642C360.631,44.9,311.881,10.669,256.001,10.669S151.37,44.9,133.576,104.474
			c-2.702,9.041-3.268,20.573-2.666,32.809C130.986,138.841,132.175,150.087,132.288,151.666z"/>
		<path style="fill:#FF2C47;" d="M379.578,151.549c-9.534-8.368-23.698-15.008-40.586-19.918
			c-64.969-18.898-170.196-12.218-206.706,20.034c-8.227,7.27-12.966,15.839-12.966,25.709h16.48h240.398h16.477
			C392.677,167.452,387.888,158.845,379.578,151.549z"/>
	</g>
	<path style="fill:#FF9600;" d="M376.2,177.374H135.801c2.652,17.465,4.41,22.825,5.955,32.218
		c4.586,27.851,8.781,43.707,14.598,54.383c8.487,15.573,20.438,20.126,42.114,34.826c38.088,21.993,76.897,22.031,115.064-0.004
		c21.675-14.7,33.622-19.249,42.112-34.822c5.819-10.677,10.013-26.528,14.598-54.383C371.787,200.2,373.547,194.839,376.2,177.374z
		"/>
	<path style="fill:#009FD3;" d="M313.533,298.797c-38.166,22.035-76.976,21.997-115.064,0.004
		c-21.676-14.7-33.627-19.253-42.101-34.834C85.695,300.203,37.333,373.79,37.333,458.662v42.669h80V437.33l53.336-42.665h85.331
		h85.33l53.338,42.665v64.001h79.998v-42.669c0-84.873-48.363-158.459-119.021-194.687
		C347.156,279.548,335.208,284.098,313.533,298.797z"/>
	<polygon style="fill:#00E58B;" points="117.334,437.33 117.334,501.331 394.669,501.331 394.669,437.33 341.331,394.665 
		170.669,394.665 	"/>
</g>
<g>
	<path style="fill:#000003;" d="M111.269,358.912c1.951,1.529,4.268,2.268,6.567,2.268c3.168,0,6.303-1.404,8.406-4.092
		c1.202-1.535,2.486-3.113,3.819-4.687c3.804-4.498,3.242-11.228-1.258-15.033c-4.498-3.803-11.229-3.243-15.033,1.258
		c-1.504,1.779-2.96,3.567-4.327,5.312C105.814,348.577,106.631,355.281,111.269,358.912z"/>
	<path style="fill:#000003;" d="M255.998,64.004c1.828,0,3.641,0.059,5.389,0.173c0.24,0.016,0.475,0.022,0.71,0.022
		c5.571,0,10.262-4.329,10.634-9.968c0.385-5.879-4.067-10.957-9.946-11.343c-2.212-0.145-4.494-0.219-6.786-0.219
		c-5.89,0-10.667,4.775-10.667,10.667C245.332,59.228,250.108,64.004,255.998,64.004z"/>
	<path style="fill:#000003;" d="M501.333,490.664h-16v-32.002c0-43.002-11.975-84.924-34.632-121.234
		c-20.221-32.404-48.173-59.207-81.219-78.058c4.258-11.181,7.694-26.233,11.285-48.049c0.571-3.47,1.178-6.378,1.879-9.746
		c0.746-3.579,1.619-7.758,2.625-13.539h7.404c5.89,0,10.667-4.777,10.667-10.667c0-11.494-4.586-21.408-12.596-29.819
		c0.027-0.247,0.057-0.491,0.081-0.723c0.632-5.518,0.823-7.255,0.869-8.144c0.825-15.448-0.175-27.637-3.052-37.262
		c-9.25-30.972-26.804-56.814-50.763-74.734C314.544,9.23,286.229,0.002,256.001,0.002c-30.227,0-58.542,9.228-81.884,26.687
		c-23.958,17.92-41.512,43.763-50.762,74.731c-2.827,9.456-3.841,21.358-3.1,36.378c0.051,1.047,0.31,3.689,0.848,9.049
		c0.026,0.254,0.052,0.515,0.078,0.779c-7.969,8.394-12.527,18.283-12.527,29.744c0,5.89,4.777,10.667,10.667,10.667h7.404
		c0.992,5.698,1.845,9.799,2.629,13.555c0.701,3.362,1.308,6.267,1.877,9.733c3.591,21.816,7.027,36.865,11.284,48.047
		c-33.045,18.85-60.997,45.652-81.217,78.06c-22.655,36.309-34.632,78.232-34.632,121.231v32.002h-16
		C4.777,490.664,0,495.441,0,501.331c0,5.89,4.777,10.667,10.667,10.667h26.667h79.998h277.333h80.002h26.667
		c5.891,0,10.667-4.777,10.667-10.667C512,495.441,507.225,490.664,501.333,490.664z M133.249,166.702
		c6.697-10.605,22.225-17.74,32.446-21.476c23.302-8.518,56.217-13.404,90.303-13.404s67.002,4.885,90.303,13.404
		c10.221,3.737,25.75,10.87,32.446,21.476H133.249z M143.797,107.528c15.879-53.165,58.874-86.192,112.204-86.192
		s96.324,33.026,112.203,86.195c1.867,6.24,2.665,14.74,2.385,25.245c-6.327-3.381-13.384-6.363-21.012-8.954
		c-0.69-6.723-2.538-12.537-2.833-13.434c-9.027-27.385-27.096-48.451-50.877-59.317c-5.36-2.446-11.688-0.09-14.136,5.268
		c-2.448,5.359-0.09,11.686,5.269,14.136c18.317,8.369,32.337,24.915,39.482,46.584c0.046,0.144,0.096,0.304,0.148,0.47
		c-21.788-4.751-46.243-7.041-70.631-7.041c-42.978,0-86.176,7.105-114.584,22.283C141.135,122.242,141.934,113.76,143.797,107.528z
		 M363.598,188.036c-0.667,3.585-1.27,6.481-1.834,9.183c-0.721,3.457-1.403,6.723-2.046,10.641
		c-8.958,54.409-14.608,58.001-38.389,73.128c-3.971,2.525-8.459,5.379-13.454,8.761c-34.425,19.749-69.323,19.75-103.746,0.004
		c-4.998-3.382-9.487-6.238-13.457-8.763c-23.782-15.129-29.433-18.722-38.389-73.129c-0.644-3.914-1.323-7.173-2.043-10.624
		c-0.564-2.706-1.168-5.606-1.837-9.201L363.598,188.036L363.598,188.036z M48,458.662c0-75.244,39.945-143.616,104.871-180.668
		c4.748,5.831,10.476,10.438,17.706,15.352c-10.476,5.427-20.483,11.865-29.75,19.157c-4.63,3.643-5.43,10.349-1.787,14.978
		c2.105,2.675,5.231,4.07,8.389,4.07c2.308,0,4.635-0.746,6.589-2.285c8.397-6.607,17.477-12.43,26.988-17.306l10.164-5.211
		c0.439,0.295,0.865,0.575,1.312,0.878c0.213,0.144,0.431,0.282,0.654,0.41c20.606,11.896,41.746,17.932,62.832,17.936
		c0.011,0,0.018,0,0.028,0c21.097,0,42.251-6.036,62.871-17.94c0.223-0.128,0.439-0.265,0.652-0.41
		c4.868-3.302,9.327-6.137,13.261-8.638c11.51-7.322,19.85-13.01,26.35-20.994C424.055,315.045,464,383.417,464,458.66v32.002
		h-58.669v-52.837c0.006-0.165,0.025-0.329,0.025-0.495c0-3.311-1.521-6.258-3.889-8.214c-0.015-0.013-0.029-0.025-0.044-0.035
		c-0.169-0.139-0.332-0.286-0.509-0.413l-52.921-42.332c-1.889-1.514-4.24-2.337-6.662-2.337H170.669
		c-2.421,0-4.772,0.823-6.663,2.337L110.67,429c-0.018,0.015-0.034,0.03-0.051,0.045c-0.094,0.076-0.182,0.157-0.273,0.237
		c-0.15,0.13-0.298,0.262-0.439,0.399c-0.09,0.086-0.175,0.175-0.26,0.265c-0.138,0.143-0.269,0.288-0.396,0.435
		c-0.08,0.093-0.159,0.185-0.236,0.279c-0.131,0.163-0.254,0.331-0.374,0.5c-0.063,0.087-0.128,0.172-0.189,0.261
		c-0.161,0.244-0.313,0.493-0.453,0.748c-0.069,0.125-0.13,0.254-0.195,0.382c-0.071,0.145-0.144,0.29-0.21,0.437
		c-0.066,0.148-0.127,0.299-0.187,0.45c-0.053,0.137-0.103,0.273-0.151,0.412c-0.053,0.157-0.108,0.311-0.155,0.47
		c-0.049,0.166-0.09,0.336-0.13,0.506c-0.051,0.213-0.097,0.428-0.135,0.647c-0.036,0.204-0.069,0.41-0.095,0.615
		c-0.015,0.129-0.023,0.258-0.034,0.387c-0.017,0.208-0.027,0.42-0.031,0.629c-0.002,0.075-0.012,0.148-0.012,0.223v53.335H48
		V458.662z M266.668,405.332h70.921l26.669,21.331h-97.59L266.668,405.332L266.668,405.332z M245.334,426.663h-97.59l26.667-21.331
		h70.923V426.663z M127.998,490.664v-42.668h117.336v21.334c0,5.89,4.777,10.667,10.667,10.667c5.891,0,10.668-4.777,10.668-10.667
		v-21.334h117.329v42.668H127.998z"/>
</g>
</svg>